<svg viewBox="0 0 24 24" fill="currentColor" xmlns="http://www.w3.org/2000/svg"><path d="M12 2.5C5.47 2.5 0 7.97 0 14.5c0 6.07 3.93 11.2 9.39 13.03.69.13.95-.3.95-.66v-2.35c-3.94.84-4.77-1.89-4.77-1.89-.64-1.67-1.58-2.12-1.58-2.12-1.29-.88.1-.86.1-.86 1.43.1 2.18 1.48 2.18 1.48 1.28 2.19 3.37 1.56 4.19 1.2.13-.93.5-1.56.91-1.92-3.15-.36-6.47-1.57-6.47-7 0-1.55.55-2.82 1.46-3.82-.15-.36-.64-1.83.14-3.81 0 0 1.19-.39 3.92 1.48a13.46 13.46 0 0 1 3.56-.48c1.22.01 2.45.17 3.56.48 2.73-1.86 3.92-1.48 3.92-1.48.78 1.98.29 3.45.14 3.81.9 1 .93 2.27 1.46 3.82 0 5.44-3.34 6.64-6.52 7.01.52.44.97 1.31.97 2.64v3.91c0 .36.26.8.95.66C20.07 25.7 24 20.57 24 14.5 24 7.97 18.53 2.5 12 2.5z"/></svg>