<svg viewBox="0 0 24 24" fill="currentColor" xmlns="http://www.w3.org/2000/svg"><path d="M8.59 3.54C8.23 3.08 7.71 2.84 7.18 2.84c-.43 0-.83.12-1.19.33-.35.18-.67.42-.92.72-.25.31-.43.68-.55 1.08-.12.4-.18.8-.18 1.2v9.78c0 .4.06.8.18 1.2.12.4.3.77.55 1.08.25.31.57.55.92.72.35.18.75.33 1.19.33.53 0 1.05-.24 1.42-.68.35-.41.6-.9.74-1.42.14-.52.21-1.05.21-1.6v-9.78c0-.55-.07-1.08-.21-1.6-.14-.52-.39-1.01-.74-1.42-.37-.44-.89-.68-1.42-.68-.53 0-1.05.24-1.42.68zm8.26 2.08c-.42.17-.8.43-1.09.78-.29.35-.5.77-.61 1.21-.1.44-.15.9-.15 1.37v8.58c0 .47.05.93.15 1.37.1.44.31.87.61 1.21.29.35.67.61 1.09.78.41.17.86.26 1.31.26s.9-.09 1.31-.26c.41-.17.8-.43 1.09-.78.29-.35.5-.77.61-1.21.1-.44.15-.9.15-1.37v-8.58c0-.47-.05-.93-.15-1.37-.1-.44-.31-.86-.61-1.21-.29-.35-.67-.61-1.09-.78-.41-.17-.86-.26-1.31-.26s-.9.09-1.31.26z"/></svg>